<?xml version="1.0" encoding="UTF-8"?>
<svg id="_레이어_0_이미지" data-name="레이어 0 이미지" xmlns="http://www.w3.org/2000/svg" viewBox="0 0 140.98 131.42">
  <path d="M67.13,77.58c0,.07-.35.29-.24.6,3.1-.96,6.51-1.06,9.59,0-.47-3.62-.1-7.57,1.44-10.91,3.32-7.19,8.17-3.99,8.64,2.63.34,4.74-1.79,8.8-4.49,12.48,3.29,5,4.71,10.59-1.27,14.17,5.63,6.46,11.58,16.32,7.23,24.95-.46.92-2.48,3.29-2.59,3.67-.14.53.34,1.13.61,1.57,7.53-2.01,14.89-7.78,18.2-14.91,4.21-9.07,4.35-20,3.99-29.81,4.91,10.1,4.32,21.93.37,32.25-2.07,5.39-5.32,9.77-10.07,13.06l26.97,1.2,15.47,1.56-10.9.85c-36.83.9-73.68.21-110.55.48l-19.53-1.21c.13-.32,1.24-.41,1.59-.45,7.38-.91,15.31-1.55,22.74-1.96,3.11-.17,6.53.01,9.61-.22.41-.03.79.03,1.07-.37-7.82-1.4-14.12-6.07-17.94-12.99-9.41-17.04,2.72-31.13-1.84-48.27-.51-1.91-1.52-3.62-2.04-5.51,1.35,1.78,2.33,4.23,3.12,6.35,4.22,11.4,1.59,19.4,2.4,30.69,1.03,14.41,12.19,23.14,25.35,26.68.23.06.84.24.78-.18-.81-.24-1.67-.65-2.38-1.1-10.87-6.92-13.38-24.3-9.83-35.93.29-.94,1.4-4.25,1.78-4.93.06-.11.31-.31.36-.24.1.7-.23,1.35-.25,2.03-.38,11.62.22,24.59,8.17,33.8,3.02,3.5,8.93,7.99,13.46,9.07,1.03.25,1.31.24,1.69-.87s-.82-1.71-1.45-2.73c-4.04-6.59-2.26-13.01,1.11-19.42,1.38-2.63,3.15-5.1,5.31-7.15-6.25-3.5-4.12-9.37-1.19-14.39-.81-1.25-1.85-2.34-2.6-3.64-2.06-3.57-2.74-7.69-1.43-11.64.97-2.91,3.41-5.08,6.07-2.34,1.47,1.51,3.47,6.93,3.47,9,0,1.31.1,2.8,0,4.08ZM65.61,83.74c-1.02.09-1.58,1.68-.53,2.36,1.84,1.2,2.6-2.54.53-2.36ZM77.84,83.96c-.84.28-.88,2.17.2,2.37,2.35.43,1.66-2.99-.2-2.37ZM73.06,89.75c-1.19-1.08-2.93.81-1.75,2.11s3.08-.9,1.75-2.11ZM80.08,128.28c-.13-.77-.63-1.37-.85-2.15-1.41-5.1,3.35-12.12,2.53-17.51l-3.24,11.03c-.7,2.85-1.09,6.67,1.56,8.63ZM61.86,108.86v3.48c0,3.27,2.88,7.98,2.79,12.19-.04,1.61-.52,2.57-1.11,4,3.03-2.14,1.94-6.79,1.13-9.88s-1.69-5.56-2.33-8.94c-.07-.35,0-.75-.48-.84Z"/>
  <path d="M98.46,2.73c3.4,3.15,12.89,12.58,14.8,16.25,4.55,8.71-4.7,12.68-5.36,20-.16,1.8.18,3.83-.36,5.64-1.5,5.1-8.58,5.27-11.87,1.79-4.07-4.3-4.62-12.38-3.8-17.94.3-2.02,1.02-3.98,1.16-6.03.55-7.94-3.92-14.67-10.07-19.18,2.7-.61,5.26-1.92,7.91-2.64,3.75-1.01,4.79-.47,7.59,2.12Z"/>
  <path d="M59.7,3.37c-.56.72-1.93,1.21-2.56,1.75-2.54,2.19-5.5,7-6.43,10.23-1.99,6.94,1.15,12.93.6,19.54-.35,4.21-2.36,9.8-5.75,12.47-4.58,3.61-10.19.89-10.55-4.8-.08-1.34.21-2.57-.03-4.04-1.06-6.46-9.23-10.83-6.18-18.46,1.49-3.73,10.12-11.32,13.31-14.62,1.8-1.86,3.61-5.05,6.46-5.41,3.08-.39,8.03,2.62,11.13,3.34Z"/>
  <path d="M50.11,103.35c-8.61-.79-12.74-11.3-13.18-18.82-.49-8.22,2.23-15.51,5.87-22.66,1.93-3.79,4.97-8.11,6.57-11.89.56-1.33.63-3.18,1.71-4.16-.42,1.05,0,1.81.01,2.75.3,12.73-9.09,21.81-8.16,34.77.23,3.18,2.56,14.29,4.03,16.83.83,1.43,2.02,2.08,3.16,3.19Z"/>
  <path d="M91.83,46.29l2.99,6.48c6.08,10.17,12.69,20.99,11.12,33.41-.85,6.74-4.24,15.4-11.68,16.86-.32.06-1.3.45-1.48-.04,2.21-.9,3.4-2.53,4.14-4.73,2.92-8.75,4.17-17.8,1.44-26.74-1.54-5.07-6.54-14.09-6.54-18.87v-6.35Z"/>
  <path d="M72.69,46.1c-1.46,5.54,2.83,8.23,6.9,4.03-.07,3.61-5.13,4.5-7.29,2.13l-1.1-1.65c-.29,1.73-2.23,3.16-3.95,3.12-1.6-.03-4.43-1.71-4.09-3.6,1.46,1.35,4.4,3.15,6.12,1.32.92-.98,1.76-4.16.97-5.25-.12-.16-2.75-1.23-3.49-1.84-1.81-1.47-2.6-3.58-1.08-5.63,2.07-2.78,8.98-2.79,11.23-.2,2.83,3.25-.93,7.03-4.23,7.57Z"/>
  <path d="M60.59,24.51c1.1-.2,2.97.97,3.17,2.01.47,2.39-1.26,5.28-3.92,3.92s-1.74-5.48.75-5.93Z"/>
  <path d="M80.97,24.76c4.62-1.06,4.35,6.69.25,5.89-2.9-.56-2.94-5.27-.25-5.89Z"/>
</svg>